<svg width="33" height="32" viewBox="0 0 33 32" fill="none" xmlns="http://www.w3.org/2000/svg">
<path d="M29.4934 12.0001V20.0001C29.4934 23.3334 28.8267 25.6667 27.3334 27.1734L18.8267 18.6668L29.1334 8.36011C29.3734 9.41339 29.4934 10.6134 29.4934 12.0001Z" stroke="#02799E" stroke-width="1.3913" stroke-linecap="round" stroke-linejoin="round"/>
<path d="M2.82672 11.9998C2.82672 5.33318 5.49339 2.6665 12.1601 2.6665H20.1601C25.4401 2.6665 28.2134 4.34651 29.1334 8.35983L8.52001 28.9732C4.50671 28.0532 2.82672 25.2798 2.82672 19.9998V17.2532" stroke="#02799E" stroke-width="1.3913" stroke-linecap="round" stroke-linejoin="round"/>
<path d="M27.3334 27.1734C25.8267 28.6667 23.4934 29.3334 20.16 29.3334H12.16C10.7734 29.3334 9.57331 29.2134 8.52002 28.9734L18.8267 18.6667L27.3334 27.1734Z" stroke="#02799E" stroke-width="1.3913" stroke-linecap="round" stroke-linejoin="round"/>
<path d="M8.47981 10.64C9.38646 6.73329 15.2532 6.73329 16.1598 10.64C16.6798 12.9333 15.2398 14.88 13.9731 16.08C13.0531 16.96 11.5998 16.96 10.6665 16.08C9.39981 14.88 7.94646 12.9333 8.47981 10.64Z" stroke="#0C0C0C" stroke-width="1.3913"/>
<path d="M12.2863 11.5999H12.2983" stroke="#0C0C0C" stroke-width="1.3913" stroke-linecap="round" stroke-linejoin="round"/>
</svg>
