<svg width="33" height="32" viewBox="0 0 33 32" fill="none" xmlns="http://www.w3.org/2000/svg">
<path d="M9.31342 12.3467L16.3801 16.44L23.3934 12.3733" stroke="#02799E" stroke-width="1.3913" stroke-linecap="round" stroke-linejoin="round"/>
<path d="M16.38 23.6934V16.4268" stroke="#02799E" stroke-width="1.3913" stroke-linecap="round" stroke-linejoin="round"/>
<path d="M8.68671 13.7334C8.68671 12.6267 9.47335 11.2801 10.4467 10.7467L14.7134 8.37339C15.6201 7.86675 17.1133 7.86675 18.0333 8.37339L22.3001 10.7467C23.2601 11.2801 24.0601 12.6267 24.0601 13.7334V18.2534C24.0601 19.3601 23.2733 20.7067 22.3001 21.2401L18.0333 23.6134C17.1267 24.1201 15.6334 24.1201 14.7134 23.6134L10.4467 21.2401C9.96671 20.9734 9.52671 20.5067 9.20671 19.9601" stroke="#02799E" stroke-width="1.3913" stroke-linecap="round" stroke-linejoin="round"/>
<path d="M29.7134 20C29.7134 25.16 25.54 29.3334 20.38 29.3334L21.78 27" stroke="#461F72" stroke-width="1.3913" stroke-linecap="round" stroke-linejoin="round"/>
<path d="M3.04678 11.9998C3.04678 6.83984 7.22011 2.6665 12.3801 2.6665L10.9801 4.99984" stroke="#461F72" stroke-width="1.3913" stroke-linecap="round" stroke-linejoin="round"/>
</svg>
